<svg width="31" height="29" viewBox="0 0 31 29" fill="none" xmlns="http://www.w3.org/2000/svg">
<path d="M12.291 4.33166C12.291 2.25313 9.91904 0.603762 7.02665 1.08377C2.78058 1.78658 0.840291 10.0648 1.01025 11.5512C1.13058 12.6024 3.60483 14.1262 6.50924 13.0465C8.40591 12.3407 9.45728 10.8783 10.0349 9.30817M18.709 4.33166C18.709 2.25313 21.081 0.603762 23.9733 1.08377C28.2194 1.78658 30.1597 10.0648 29.9897 11.5512C29.8694 12.6024 27.3952 14.1262 24.4908 13.0465C22.5941 12.3407 21.7007 10.8783 21.1231 9.30817M9.2828 17.5326V18.2802M21.3156 17.5326V18.2802M14.1711 20.8971H16.4273L15.2992 22.0186L14.1711 20.8971Z" stroke="#7738F4" stroke-width="2" stroke-linecap="round" stroke-linejoin="round"/>
<path d="M3.89809 13.4159C3.47714 15.0319 3.26486 16.6947 3.26637 18.364C3.26637 24.6026 8.65405 28 15.2992 28C21.9443 28 27.332 24.6026 27.332 18.364C27.332 16.7774 27.0883 15.0742 26.5904 13.4159M12.688 4.3212C13.5481 4.15323 14.4227 4.07058 15.2992 4.07447C16.4724 4.07447 17.5553 4.23597 18.5495 4.53205" stroke="#7738F4" stroke-width="2" stroke-linecap="round" stroke-linejoin="round"/>
</svg>
