<svg width="20" height="20" viewBox="0 0 20 20" fill="none" xmlns="http://www.w3.org/2000/svg">
<path d="M10.0001 18.3334C8.8473 18.3334 7.76397 18.1145 6.75008 17.6767C5.73619 17.2389 4.85425 16.6453 4.10425 15.8959C3.35425 15.1459 2.76064 14.2639 2.32341 13.25C1.88619 12.2361 1.6673 11.1528 1.66675 10C1.66675 8.84724 1.88564 7.76391 2.32341 6.75002C2.76119 5.73613 3.3548 4.85419 4.10425 4.10419C4.85425 3.35419 5.73619 2.76058 6.75008 2.32335C7.76397 1.88613 8.8473 1.66724 10.0001 1.66669C10.9029 1.66669 11.757 1.79863 12.5626 2.06252C13.3681 2.32641 14.1112 2.69446 14.7917 3.16669L13.5834 4.39585C13.0556 4.06252 12.4931 3.80224 11.8959 3.61502C11.2987 3.4278 10.6667 3.33391 10.0001 3.33335C8.15286 3.33335 6.5798 3.9828 5.28091 5.28169C3.98203 6.58058 3.33286 8.15335 3.33341 10C3.33341 11.8472 3.98286 13.4203 5.28175 14.7192C6.58064 16.0181 8.15341 16.6672 10.0001 16.6667C11.8473 16.6667 13.4204 16.0175 14.7192 14.7192C16.0181 13.4209 16.6673 11.8478 16.6667 10C16.6667 9.75002 16.6529 9.50002 16.6251 9.25002C16.5973 9.00002 16.5556 8.75697 16.5001 8.52085L17.8542 7.16669C18.007 7.61113 18.1251 8.06947 18.2084 8.54169C18.2917 9.01391 18.3334 9.50002 18.3334 10C18.3334 11.1528 18.1145 12.2361 17.6767 13.25C17.239 14.2639 16.6454 15.1459 15.8959 15.8959C15.1459 16.6459 14.264 17.2397 13.2501 17.6775C12.2362 18.1153 11.1529 18.3339 10.0001 18.3334ZM8.83342 13.8334L5.29175 10.2917L6.45842 9.12502L8.83342 11.5L17.1667 3.14585L18.3334 4.31252L8.83342 13.8334Z" fill="#7738F4"/>
</svg>
