<svg width="32" height="32" viewBox="0 0 32 32" fill="none" xmlns="http://www.w3.org/2000/svg">
<g clip-path="url(#clip0_70_356)">
<path fill-rule="evenodd" clip-rule="evenodd" d="M10.6236 5.49205C10.6236 4.09981 11.1767 2.7646 12.1611 1.78014C13.1456 0.795678 14.4808 0.242615 15.873 0.242615C17.2653 0.242615 18.6005 0.795678 19.5849 1.78014C20.5694 2.7646 21.1225 4.09981 21.1225 5.49205C21.1225 6.88428 20.5694 8.2195 19.5849 9.20396C18.6005 10.1884 17.2653 10.7415 15.873 10.7415C14.4808 10.7415 13.1456 10.1884 12.1611 9.20396C11.1767 8.2195 10.6236 6.88428 10.6236 5.49205ZM5.5465 14.0907C6.61509 13.0763 8.03228 12.5107 9.50568 12.5107C10.9791 12.5107 12.3963 13.0763 13.4649 14.0907L13.4875 14.1134L15.873 16.4988L18.2608 14.1134L18.2835 14.0907C19.3518 13.0776 20.7681 12.5129 22.2404 12.5129C23.7127 12.5129 25.1289 13.0776 26.1973 14.0907C26.728 14.594 27.1507 15.1999 27.4398 15.8718C27.7289 16.5436 27.8783 17.2672 27.8789 17.9985C27.8796 18.7299 27.7314 19.4537 27.4435 20.1261C27.1556 20.7984 26.7339 21.4051 26.2041 21.9093L16.6621 31.1837C16.4505 31.3894 16.167 31.5044 15.8719 31.5044C15.5768 31.5044 15.2933 31.3894 15.0816 31.1837L5.54197 21.9093C5.01239 21.4053 4.59083 20.7988 4.30292 20.1268C4.01501 19.4548 3.86676 18.7312 3.86719 18.0001C3.86761 17.2691 4.0167 16.5457 4.30539 15.874C4.59408 15.2023 5.01634 14.5941 5.5465 14.0907Z" fill="#7738F4"/>
</g>
<defs>
<clipPath id="clip0_70_356">
<rect width="31.746" height="31.746" fill="white"/>
</clipPath>
</defs>
</svg>
