<svg width="32" height="32" viewBox="0 0 32 32" fill="none" xmlns="http://www.w3.org/2000/svg">
<path d="M26.4881 24.8295C26.4943 24.8202 26.5036 24.8109 26.5098 24.8016C28.5404 22.3865 29.7619 19.2739 29.7619 15.873C29.7619 12.4721 28.5404 9.3595 26.5129 6.94445C26.5067 6.93515 26.4974 6.92895 26.4912 6.91965C26.4571 6.87934 26.4261 6.84214 26.392 6.80494C26.3796 6.78944 26.3672 6.77704 26.3548 6.76154L26.2277 6.61583L26.2246 6.61273C26.1781 6.56002 26.1285 6.50732 26.082 6.45462L26.0789 6.45152C25.9797 6.34611 25.8805 6.2407 25.7782 6.1384L25.7751 6.1353L25.6262 5.98649L25.6169 5.97719C25.5704 5.93068 25.5239 5.88728 25.4774 5.84388C25.4619 5.82838 25.4464 5.81288 25.4278 5.79737C25.3968 5.76637 25.3658 5.73847 25.3348 5.71057C25.3255 5.70127 25.3131 5.69197 25.3038 5.67957C22.8299 3.38542 19.5158 1.98413 15.873 1.98413C12.2303 1.98413 8.91617 3.38542 6.43912 5.67957C6.42982 5.68887 6.41741 5.69817 6.40811 5.71057C6.37711 5.73847 6.34611 5.76947 6.31511 5.80048C6.29961 5.81598 6.28411 5.83148 6.2655 5.84698C6.219 5.89038 6.1725 5.93688 6.126 5.98029L6.1167 5.98959L5.96789 6.1384L5.96479 6.1415C5.86248 6.2438 5.76327 6.34921 5.66407 6.45462L5.66097 6.45772C5.61136 6.51042 5.56486 6.56312 5.51836 6.61583L5.51526 6.61893C5.47185 6.66543 5.42845 6.71503 5.38815 6.76464C5.37575 6.78014 5.36335 6.79254 5.35095 6.80804C5.31684 6.84524 5.28584 6.88554 5.25174 6.92275C5.24554 6.93205 5.23624 6.93825 5.23004 6.94755C3.20561 9.3595 1.98413 12.4721 1.98413 15.873C1.98413 19.2739 3.20561 22.3865 5.23314 24.8016C5.23934 24.8109 5.24864 24.8202 5.25484 24.8295L5.35095 24.9442C5.36335 24.9597 5.37575 24.9721 5.38815 24.9876L5.51526 25.1333C5.51526 25.1364 5.51836 25.1364 5.51836 25.1395C5.56486 25.1922 5.61136 25.2449 5.66097 25.2945L5.66407 25.2976C5.76327 25.403 5.86248 25.5084 5.96169 25.6107L5.96479 25.6138C6.01439 25.6634 6.06089 25.713 6.1105 25.7596L6.1198 25.7689C6.2221 25.8712 6.32751 25.9704 6.43292 26.0665C8.91617 28.3606 12.2303 29.7619 15.873 29.7619C19.5158 29.7619 22.8299 28.3606 25.3069 26.0665C25.4125 25.9697 25.5159 25.8704 25.6169 25.7689L25.6262 25.7596C25.6758 25.7099 25.7254 25.6634 25.772 25.6138L25.7751 25.6107C25.8774 25.5084 25.9766 25.403 26.0727 25.2976L26.0758 25.2945C26.1223 25.2418 26.1719 25.1922 26.2184 25.1395C26.2184 25.1364 26.2215 25.1364 26.2215 25.1333C26.2649 25.0868 26.3083 25.0372 26.3486 24.9876C26.361 24.9721 26.3734 24.9597 26.3858 24.9442C26.4208 24.9068 26.455 24.8686 26.4881 24.8295ZM26.6152 20.4086C26.1874 21.4193 25.6231 22.3555 24.9349 23.205C24.1598 22.5351 23.3123 21.9538 22.4082 21.472C22.7679 20.018 22.9911 18.4214 23.05 16.7411H27.4988C27.4058 18.0091 27.1081 19.2398 26.6152 20.4086ZM27.4988 15.005H23.05C22.9911 13.3247 22.7679 11.7281 22.4082 10.2741C23.3166 9.79043 24.1629 9.20759 24.9349 8.54105C26.431 10.3825 27.3259 12.6387 27.4988 15.005ZM20.4086 5.13083C21.6394 5.65167 22.7586 6.37091 23.7444 7.27617C23.1717 7.76381 22.5553 8.19761 21.9029 8.57205C21.4162 7.17696 20.793 5.96479 20.0676 4.99442C20.1823 5.03783 20.297 5.08433 20.4086 5.13083ZM17.5998 26.8508C17.3146 27.074 17.0294 27.2445 16.7411 27.3593V21.6084C17.9712 21.6942 19.1809 21.9681 20.328 22.4206C20.0707 23.1833 19.7731 23.887 19.4289 24.5226C18.8895 25.527 18.2571 26.33 17.5998 26.8508ZM19.4289 7.22347C19.77 7.86211 20.0707 8.56585 20.328 9.3254C19.1809 9.7779 17.9712 10.0518 16.7411 10.1377V4.38988C17.0263 4.50459 17.3146 4.672 17.5998 4.89832C18.2571 5.41605 18.8895 6.219 19.4289 7.22347ZM16.7411 19.8692V16.7411H21.3139C21.2643 18.1114 21.0938 19.4413 20.8085 20.7031L20.7992 20.7403C19.4982 20.247 18.13 19.9533 16.7411 19.8692ZM16.7411 15.005V11.8769C18.161 11.7901 19.5251 11.4893 20.7992 11.0057L20.8085 11.0429C21.0938 12.3047 21.2643 13.6316 21.3139 15.005H16.7411ZM15.005 16.7411V19.8692C13.5851 19.956 12.221 20.2567 10.9468 20.7403L10.9375 20.7031C10.6523 19.4413 10.4818 18.1145 10.4322 16.7411H15.005ZM10.4322 15.005C10.4818 13.6347 10.6523 12.3047 10.9375 11.0429L10.9468 11.0057C12.221 11.4893 13.582 11.7901 15.005 11.8769V15.005H10.4322ZM15.005 21.6084V27.3562C14.7197 27.2414 14.4314 27.074 14.1462 26.8477C13.489 26.33 12.8534 25.5239 12.314 24.5195C11.973 23.8808 11.6723 23.1771 11.4149 22.4175C12.5682 21.9649 13.768 21.6952 15.005 21.6084ZM15.005 10.1377C13.7748 10.0518 12.5651 9.7779 11.418 9.3254C11.6754 8.56275 11.973 7.85901 12.3171 7.22347C12.8565 6.219 13.489 5.41295 14.1493 4.89522C14.4345 4.672 14.7197 4.50149 15.0081 4.38678V10.1377H15.005ZM11.3374 5.13083C11.4521 5.08433 11.5637 5.03783 11.6785 4.99442C10.953 5.96479 10.3299 7.17696 9.84313 8.57205C9.19209 8.20003 8.57515 7.766 8.00162 7.27617C8.98748 6.37091 10.1067 5.65167 11.3374 5.13083ZM5.13083 11.3374C5.55866 10.3268 6.1229 9.3905 6.81114 8.54105C7.58309 9.20759 8.42944 9.79043 9.3378 10.2741C8.97818 11.7281 8.75496 13.3247 8.69606 15.005H4.24728C4.34028 13.737 4.6379 12.5062 5.13083 11.3374ZM4.24728 16.7411H8.69606C8.75496 18.4214 8.97818 20.018 9.3378 21.472C8.43372 21.9538 7.58626 22.5351 6.81114 23.205C5.31508 21.3636 4.42017 19.1073 4.24728 16.7411ZM11.3374 26.6152C10.1067 26.0944 8.98748 25.3751 8.00162 24.4699C8.57515 23.98 9.19209 23.5491 9.84313 23.174C10.3299 24.5691 10.953 25.7813 11.6785 26.7516C11.5637 26.7082 11.449 26.6617 11.3374 26.6152ZM20.4086 26.6152C20.2939 26.6617 20.1823 26.7082 20.0676 26.7516C20.793 25.7813 21.4162 24.5691 21.9029 23.174C22.5539 23.546 23.1709 23.98 23.7444 24.4699C22.764 25.3714 21.6356 26.0971 20.4086 26.6152Z" fill="#7738F4"/>
</svg>
